<?xml version="1.0" encoding="UTF-8" standalone="no"?>
<svg
   xmlns:dc="http://purl.org/dc/elements/1.1/"
   xmlns:cc="http://creativecommons.org/ns#"
   xmlns:rdf="http://www.w3.org/1999/02/22-rdf-syntax-ns#"
   xmlns:svg="http://www.w3.org/2000/svg"
   xmlns="http://www.w3.org/2000/svg"
   xmlns:sodipodi="http://sodipodi.sourceforge.net/DTD/sodipodi-0.dtd"
   xmlns:inkscape="http://www.inkscape.org/namespaces/inkscape"
   width="1000"
   height="1000"
   viewBox="0 0 264.58333 264.58334"
   version="1.1"
   id="svg233"
   inkscape:version="1.0.1 (3bc2e813f5, 2020-09-07)"
   sodipodi:docname="eduway.svg">
  <defs
     id="defs227">
    <linearGradient
       x1="0"
       y1="0"
       x2="1"
       y2="0"
       gradientUnits="userSpaceOnUse"
       gradientTransform="matrix(8.1456399,102.6353,-102.6353,8.1456399,59.660447,108.01915)"
       spreadMethod="pad"
       id="linearGradient54">
      <stop
         style="stop-opacity:1;stop-color:#2c3792"
         offset="0"
         id="stop48" />
      <stop
         style="stop-opacity:1;stop-color:#2c3792"
         offset="0.17814524"
         id="stop50" />
      <stop
         style="stop-opacity:1;stop-color:#24265d"
         offset="1"
         id="stop52" />
    </linearGradient>
    <linearGradient
       x1="0"
       y1="0"
       x2="1"
       y2="0"
       gradientUnits="userSpaceOnUse"
       gradientTransform="matrix(7.6240322,96.062883,-96.062883,7.6240322,141.59577,110.76602)"
       spreadMethod="pad"
       id="linearGradient64">
      <stop
         style="stop-opacity:1;stop-color:#2c3792"
         offset="0"
         id="stop58" />
      <stop
         style="stop-opacity:1;stop-color:#2c3792"
         offset="0.17814524"
         id="stop60" />
      <stop
         style="stop-opacity:1;stop-color:#24265d"
         offset="1"
         id="stop62" />
    </linearGradient>
    <clipPath
       clipPathUnits="userSpaceOnUse"
       id="clipPath74">
      <path
         d="m 21065.2,31326.3 -7.8,848.6 c 0,0 1574.3,-1279.9 2420.9,-2099.9 846.7,-820 2001.7,-2150 2001.7,-2150 l -173.8,-10 z"
         id="path72" />
    </clipPath>
    <linearGradient
       x1="0"
       y1="0"
       x2="1"
       y2="0"
       gradientUnits="userSpaceOnUse"
       gradientTransform="matrix(535.282,623.739,623.739,-535.282,22819.5,29526.6)"
       spreadMethod="pad"
       id="linearGradient80">
      <stop
         style="stop-opacity:1;stop-color:#3e59b1"
         offset="0"
         id="stop76" />
      <stop
         style="stop-opacity:1;stop-color:#51ade5"
         offset="1"
         id="stop78" />
    </linearGradient>
    <clipPath
       clipPathUnits="userSpaceOnUse"
       id="clipPath90">
      <path
         d="m 22320.2,31218.3 v 956.6 c 0,0 1314.8,-959.9 1934.8,-1699.9 620,-740 1460.2,-2559.9 1460.2,-2559.9 h -134.4 c 0,0 -1407.1,1596.6 -1975.8,2145 -568.7,548.5 -1284.8,1158.2 -1284.8,1158.2 z"
         id="path88" />
    </clipPath>
    <linearGradient
       x1="0"
       y1="0"
       x2="1"
       y2="0"
       gradientUnits="userSpaceOnUse"
       gradientTransform="matrix(-632.495,-837.877,-837.877,632.495,24432.1,30594)"
       spreadMethod="pad"
       id="linearGradient96">
      <stop
         style="stop-opacity:1;stop-color:#51ade5"
         offset="0"
         id="stop92" />
      <stop
         style="stop-opacity:1;stop-color:#3e59b1"
         offset="1"
         id="stop94" />
    </linearGradient>
    <clipPath
       clipPathUnits="userSpaceOnUse"
       id="clipPath106">
      <path
         d="m 30376,31326.3 7.8,848.6 c 0,0 -2089.3,-1870.3 -2708.8,-2399.9 -619.5,-529.6 -1733.8,-1860 -1733.8,-1860 l 213.8,0.1 z"
         id="path104" />
    </clipPath>
    <linearGradient
       x1="0"
       y1="0"
       x2="1"
       y2="0"
       gradientUnits="userSpaceOnUse"
       gradientTransform="matrix(250.811,-296.376,-296.376,-250.811,28227.1,29968.6)"
       spreadMethod="pad"
       id="linearGradient112">
      <stop
         style="stop-opacity:1;stop-color:#51ade5"
         offset="0"
         id="stop108" />
      <stop
         style="stop-opacity:1;stop-color:#3e59b1"
         offset="1"
         id="stop110" />
    </linearGradient>
    <clipPath
       clipPathUnits="userSpaceOnUse"
       id="clipPath122">
      <path
         d="m 29121,31165 v 1009.9 c 0,0 -1436,-669.9 -2276,-1829.9 -840,-1160 -1079,-2429.9 -1079,-2429.9 h 94.4 c 0,0 944.6,1214.9 1724.6,1889.9 780,675 1536,1360 1536,1360 z"
         id="path120" />
    </clipPath>
    <linearGradient
       x1="0"
       y1="0"
       x2="1"
       y2="0"
       gradientUnits="userSpaceOnUse"
       gradientTransform="matrix(817.874,-1030.12,-1030.12,-817.874,27015.2,30584.4)"
       spreadMethod="pad"
       id="linearGradient128">
      <stop
         style="stop-opacity:1;stop-color:#51ade5"
         offset="0"
         id="stop124" />
      <stop
         style="stop-opacity:1;stop-color:#3f55ae"
         offset="1"
         id="stop126" />
    </linearGradient>
    <clipPath
       clipPathUnits="userSpaceOnUse"
       id="clipPath138">
      <path
         d="m 25238.6,27861.5 960,-6.5 v -8092.3 l -960,13 z"
         id="path136" />
    </clipPath>
    <linearGradient
       x1="0"
       y1="0"
       x2="1"
       y2="0"
       gradientUnits="userSpaceOnUse"
       gradientTransform="matrix(2654.52,-3136.77,-3136.77,-2654.52,25512.1,24059.4)"
       spreadMethod="pad"
       id="linearGradient144">
      <stop
         style="stop-opacity:1;stop-color:#51ade5"
         offset="0"
         id="stop140" />
      <stop
         style="stop-opacity:1;stop-color:#3e59b1"
         offset="1"
         id="stop142" />
    </linearGradient>
  </defs>
  <sodipodi:namedview
     id="base"
     pagecolor="#ffffff"
     bordercolor="#666666"
     borderopacity="1.0"
     inkscape:pageopacity="0.0"
     inkscape:pageshadow="2"
     inkscape:zoom="0.49497475"
     inkscape:cx="-41.69846"
     inkscape:cy="565.54505"
     inkscape:document-units="mm"
     inkscape:current-layer="layer1"
     inkscape:document-rotation="0"
     showgrid="false"
     units="px"
     inkscape:window-width="1745"
     inkscape:window-height="1010"
     inkscape:window-x="0"
     inkscape:window-y="0"
     inkscape:window-maximized="0" />
  <metadata
     id="metadata230">
    <rdf:RDF>
      <cc:Work
         rdf:about="">
        <dc:format>image/svg+xml</dc:format>
        <dc:type
           rdf:resource="http://purl.org/dc/dcmitype/StillImage" />
        <dc:title></dc:title>
      </cc:Work>
    </rdf:RDF>
  </metadata>
  <g
     inkscape:label="Layer 1"
     inkscape:groupmode="layer"
     id="layer1">
    <g
       id="g356"
       transform="matrix(1.5144606,0,0,1.5144606,-24.698354,-89.892886)">
      <path
         d="M 97.383852,230.75862 28.454098,175.94053 28.116167,65.395075 l 69.184895,55.762665 0.0828,109.60088"
         style="fill:url(#linearGradient54);fill-opacity:1;fill-rule:evenodd;stroke:none;stroke-width:0.0135714"
         id="path56" />
      <path
         d="m 110.27544,230.93506 68.92976,-54.81809 -0.33794,-110.545469 -68.6244,55.538739 0.0325,109.82482"
         style="fill:url(#linearGradient64);fill-opacity:1;fill-rule:evenodd;stroke:none;stroke-width:0.0135714"
         id="path66" />
      <g
         id="g68"
         transform="matrix(0.01357153,0,0,-0.01357153,-245.31198,499.14497)">
        <g
           id="g70"
           clip-path="url(#clipPath74)">
          <path
             d="m 21065.2,31326.3 -7.8,848.6 c 0,0 1574.3,-1279.9 2420.9,-2099.9 846.7,-820 2001.7,-2150 2001.7,-2150 l -173.8,-10 -4241,3411.3"
             style="fill:url(#linearGradient80);fill-opacity:1;fill-rule:nonzero;stroke:none"
             id="path82" />
        </g>
      </g>
      <g
         id="g84"
         transform="matrix(0.01357153,0,0,-0.01357153,-245.31198,499.14497)">
        <g
           id="g86"
           clip-path="url(#clipPath90)">
          <path
             d="m 22320.2,31218.3 v 956.6 c 0,0 1314.8,-959.9 1934.8,-1699.9 620,-740 1460.2,-2559.9 1460.2,-2559.9 h -134.4 c 0,0 -1407.1,1596.6 -1975.8,2145 -568.7,548.5 -1284.8,1158.2 -1284.8,1158.2"
             style="fill:url(#linearGradient96);fill-opacity:1;fill-rule:nonzero;stroke:none"
             id="path98" />
        </g>
      </g>
      <g
         id="g100"
         transform="matrix(0.01357153,0,0,-0.01357153,-245.31198,499.14497)">
        <g
           id="g102"
           clip-path="url(#clipPath106)">
          <path
             d="m 30376,31326.3 7.8,848.6 c 0,0 -2089.3,-1870.3 -2708.8,-2399.9 -619.5,-529.6 -1733.8,-1860 -1733.8,-1860 l 213.8,0.1 4221,3411.2"
             style="fill:url(#linearGradient112);fill-opacity:1;fill-rule:nonzero;stroke:none"
             id="path114" />
        </g>
      </g>
      <g
         id="g116"
         transform="matrix(0.01357153,0,0,-0.01357153,-245.31198,499.14497)">
        <g
           id="g118"
           clip-path="url(#clipPath122)">
          <path
             d="m 29121,31165 v 1009.9 c 0,0 -1436,-669.9 -2276,-1829.9 -840,-1160 -1079,-2429.9 -1079,-2429.9 h 94.4 c 0,0 944.6,1214.9 1724.6,1889.9 780,675 1536,1360 1536,1360"
             style="fill:url(#linearGradient128);fill-opacity:1;fill-rule:nonzero;stroke:none"
             id="path130" />
        </g>
      </g>
      <g
         id="g132"
         transform="matrix(0.01357153,0,0,-0.01357153,-245.31198,499.14497)">
        <g
           id="g134"
           clip-path="url(#clipPath138)">
          <path
             d="m 25238.6,27861.5 960,-6.5 v -8092.3 l -960,13 v 8085.8"
             style="fill:url(#linearGradient144);fill-opacity:1;fill-rule:nonzero;stroke:none"
             id="path146" />
        </g>
      </g>
    </g>
  </g>
</svg>
